<svg width="12" height="12" viewBox="0 0 12 12" fill="none" xmlns="http://www.w3.org/2000/svg">
<path d="M6.00039 4.13458L10.6984 8.8337C10.8048 8.94009 10.949 8.99985 11.0995 8.99985C11.25 8.99985 11.3942 8.94009 11.5006 8.8337C11.607 8.72731 11.6668 8.58302 11.6668 8.43257C11.6668 8.28212 11.607 8.13782 11.5006 8.03144L6.40152 2.93232C6.34889 2.87956 6.28637 2.8377 6.21753 2.80913C6.1487 2.78057 6.07491 2.76587 6.00039 2.76587C5.92586 2.76587 5.85207 2.78057 5.78324 2.80913C5.71441 2.8377 5.65188 2.87956 5.59926 2.93232L0.500138 8.03144C0.393752 8.13782 0.333984 8.28212 0.333984 8.43257C0.333984 8.58302 0.393752 8.72731 0.500138 8.8337C0.606524 8.94009 0.750815 8.99985 0.901269 8.99985C1.05172 8.99985 1.19601 8.94009 1.3024 8.8337L6.00039 4.13458Z" fill="#181A1B"/>
</svg>
