<svg width="18" height="18" viewBox="0 0 18 18" fill="none" xmlns="http://www.w3.org/2000/svg">
<path d="M9 12.375C9.29837 12.375 9.58452 12.4935 9.7955 12.7045C10.0065 12.9155 10.125 13.2016 10.125 13.5C10.125 13.7984 10.0065 14.0845 9.7955 14.2955C9.58452 14.5065 9.29837 14.625 9 14.625C8.70163 14.625 8.41548 14.5065 8.2045 14.2955C7.99353 14.0845 7.875 13.7984 7.875 13.5C7.875 13.2016 7.99353 12.9155 8.2045 12.7045C8.41548 12.4935 8.70163 12.375 9 12.375ZM9 7.875C9.29837 7.875 9.58452 7.99353 9.7955 8.2045C10.0065 8.41548 10.125 8.70163 10.125 9C10.125 9.29837 10.0065 9.58452 9.7955 9.7955C9.58452 10.0065 9.29837 10.125 9 10.125C8.70163 10.125 8.41548 10.0065 8.2045 9.7955C7.99353 9.58452 7.875 9.29837 7.875 9C7.875 8.70163 7.99353 8.41548 8.2045 8.2045C8.41548 7.99353 8.70163 7.875 9 7.875ZM9 3.375C9.29837 3.375 9.58452 3.49353 9.7955 3.7045C10.0065 3.91548 10.125 4.20163 10.125 4.5C10.125 4.79837 10.0065 5.08452 9.7955 5.2955C9.58452 5.50647 9.29837 5.625 9 5.625C8.70163 5.625 8.41548 5.50647 8.2045 5.2955C7.99353 5.08452 7.875 4.79837 7.875 4.5C7.875 4.20163 7.99353 3.91548 8.2045 3.7045C8.41548 3.49353 8.70163 3.375 9 3.375Z" fill="#181A1B"/>
</svg>
