<svg width="12" height="12" viewBox="0 0 12 12" fill="none" xmlns="http://www.w3.org/2000/svg">
<path d="M6.0001 7.63129L1.30212 2.93217C1.19573 2.82578 1.05144 2.76602 0.900985 2.76602C0.750532 2.76602 0.60624 2.82578 0.499854 2.93217C0.393468 3.03856 0.333701 3.18285 0.333701 3.3333C0.333701 3.48375 0.393468 3.62805 0.499854 3.73443L5.59897 8.83355C5.6516 8.88631 5.71412 8.92817 5.78296 8.95674C5.85179 8.9853 5.92558 9 6.0001 9C6.07463 9 6.14842 8.9853 6.21725 8.95674C6.28608 8.92817 6.3486 8.88631 6.40123 8.83355L11.5004 3.73443C11.6067 3.62805 11.6665 3.48375 11.6665 3.3333C11.6665 3.18285 11.6067 3.03856 11.5004 2.93217C11.394 2.82578 11.2497 2.76602 11.0992 2.76602C10.9488 2.76602 10.8045 2.82578 10.6981 2.93217L6.0001 7.63129Z" fill="#181A1B"/>
</svg>
