<svg width="30" height="30" viewBox="0 0 30 30" fill="none" xmlns="http://www.w3.org/2000/svg">
<path d="M15 0C6.72875 0 0 6.72875 0 15C0 23.2712 6.72875 30 15 30C23.2712 30 30 23.2712 30 15C30 6.72875 23.2712 0 15 0ZM15 2.5C21.9188 2.5 27.5 8.08125 27.5 15C27.5 21.9188 21.9188 27.5 15 27.5C8.08125 27.5 2.5 21.9188 2.5 15C2.5 8.08125 8.08125 2.5 15 2.5ZM15 7.5C12.25 7.5 10 9.75 10 12.5H12.5C12.5 11.1038 13.6038 10 15 10C16.3962 10 17.5 11.1038 17.5 12.5C17.4997 12.9671 17.3523 13.4223 17.0788 13.801C16.8053 14.1797 16.4196 14.4628 15.9762 14.61L15.4688 14.765C14.9691 14.9333 14.5347 15.2539 14.2265 15.6816C13.9183 16.1093 13.7516 16.6228 13.75 17.15V18.75H16.25V17.1488L16.7575 16.9925C17.699 16.6754 18.5178 16.0719 19.0993 15.2663C19.6807 14.4607 19.9956 13.4935 20 12.5C20 9.75 17.75 7.5 15 7.5ZM13.75 20V22.5H16.25V20H13.75Z" fill="#AEB3B7"/>
</svg>
