<svg width="100" height="33" viewBox="0 0 100 33" fill="none" xmlns="http://www.w3.org/2000/svg">
<g clip-path="url(#clip0_6416_8207)">
<path d="M35.8211 7.09051C35.9312 6.86753 36.2491 6.86753 36.3592 7.09051L37.8372 10.0853C37.8809 10.1738 37.9654 10.2352 38.0631 10.2494L41.368 10.7296C41.6141 10.7654 41.7123 11.0678 41.5343 11.2413L39.1428 13.5724C39.0721 13.6414 39.0398 13.7407 39.0565 13.838L39.6211 17.1296C39.6631 17.3746 39.4059 17.5615 39.1858 17.4458L36.2298 15.8917C36.1424 15.8458 36.038 15.8458 35.9506 15.8917L32.9945 17.4458C32.7745 17.5615 32.5172 17.3746 32.5593 17.1296L33.1238 13.838C33.1405 13.7407 33.1082 13.6414 33.0375 13.5724L30.6461 11.2413C30.468 11.0678 30.5663 10.7654 30.8123 10.7296L34.1172 10.2494C34.215 10.2352 34.2994 10.1738 34.3431 10.0853L35.8211 7.09051Z" fill="#60676C"/>
<path d="M21.9129 7.09051C22.023 6.86753 22.3409 6.86753 22.451 7.09051L23.929 10.0853C23.9727 10.1738 24.0572 10.2352 24.1549 10.2494L27.4598 10.7296C27.7059 10.7654 27.8041 11.0678 27.6261 11.2413L25.2346 13.5724C25.1639 13.6414 25.1316 13.7407 25.1483 13.838L25.7129 17.1296C25.7549 17.3746 25.4977 17.5615 25.2776 17.4458L22.3216 15.8917C22.2342 15.8458 22.1298 15.8458 22.0424 15.8917L19.0863 17.4458C18.8662 17.5615 18.609 17.3746 18.6511 17.1296L19.2156 13.838C19.2323 13.7407 19.2 13.6414 19.1293 13.5724L16.7379 11.2413C16.5598 11.0678 16.658 10.7654 16.9041 10.7296L20.209 10.2494C20.3068 10.2352 20.3912 10.1738 20.4349 10.0853L21.9129 7.09051Z" fill="#60676C"/>
<path d="M49.7303 7.09051C49.8404 6.86753 50.1583 6.86753 50.2684 7.09051L51.7464 10.0853C51.7901 10.1738 51.8745 10.2352 51.9722 10.2494L55.2772 10.7296C55.5232 10.7654 55.6215 11.0678 55.4434 11.2413L53.052 13.5724C52.9813 13.6414 52.949 13.7407 52.9657 13.838L53.5302 17.1296C53.5723 17.3746 53.315 17.5615 53.095 17.4458L50.1389 15.8917C50.0515 15.8458 49.9471 15.8458 49.8597 15.8917L46.9037 17.4458C46.6836 17.5615 46.4264 17.3746 46.4684 17.1296L47.033 13.838C47.0497 13.7407 47.0174 13.6414 46.9467 13.5724L44.5552 11.2413C44.3772 11.0678 44.4754 10.7654 44.7215 10.7296L48.0264 10.2494C48.1241 10.2352 48.2086 10.1738 48.2523 10.0853L49.7303 7.09051Z" fill="#60676C"/>
<path d="M63.6405 7.09051C63.7505 6.86753 64.0685 6.86753 64.1785 7.09051L65.6565 10.0853C65.7002 10.1738 65.7847 10.2352 65.8824 10.2494L69.1873 10.7296C69.4334 10.7654 69.5317 11.0678 69.3536 11.2413L66.9621 13.5724C66.8914 13.6414 66.8592 13.7407 66.8759 13.838L67.4404 17.1296C67.4824 17.3746 67.2252 17.5615 67.0051 17.4458L64.0491 15.8917C63.9617 15.8458 63.8573 15.8458 63.7699 15.8917L60.8139 17.4458C60.5938 17.5615 60.3366 17.3746 60.3786 17.1296L60.9431 13.838C60.9598 13.7407 60.9276 13.6414 60.8569 13.5724L58.4654 11.2413C58.2873 11.0678 58.3856 10.7654 58.6317 10.7296L61.9366 10.2494C62.0343 10.2352 62.1188 10.1738 62.1625 10.0853L63.6405 7.09051Z" fill="#60676C"/>
<path d="M77.5487 7.09051C77.6587 6.86753 77.9767 6.86753 78.0867 7.09051L79.5647 10.0853C79.6084 10.1738 79.6929 10.2352 79.7906 10.2494L83.0955 10.7296C83.3416 10.7654 83.4399 11.0678 83.2618 11.2413L80.8703 13.5724C80.7996 13.6414 80.7674 13.7407 80.7841 13.838L81.3486 17.1296C81.3906 17.3746 81.1334 17.5615 80.9133 17.4458L77.9573 15.8917C77.8699 15.8458 77.7655 15.8458 77.6781 15.8917L74.7221 17.4458C74.502 17.5615 74.2448 17.3746 74.2868 17.1296L74.8513 13.838C74.868 13.7407 74.8358 13.6414 74.7651 13.5724L72.3736 11.2413C72.1955 11.0678 72.2938 10.7654 72.5399 10.7296L75.8448 10.2494C75.9425 10.2352 76.027 10.1738 76.0707 10.0853L77.5487 7.09051Z" fill="#60676C"/>
<path d="M10.4118 24.619H44.2941L99 24.8958V1H44.2941H1V32L10.4118 24.619Z" stroke="#60676C" stroke-width="1.5" stroke-miterlimit="10" stroke-linecap="round" stroke-linejoin="round"/>
</g>
<defs>
<clipPath id="clip0_6416_8207">
<rect width="100" height="33" fill="white"/>
</clipPath>
</defs>
</svg>
