<svg width="20" height="20" viewBox="0 0 20 20" fill="none" xmlns="http://www.w3.org/2000/svg">
<path d="M10 13.3333C11.3807 13.3333 12.5 12.214 12.5 10.8333C12.5 9.4526 11.3807 8.33331 10 8.33331C8.61929 8.33331 7.5 9.4526 7.5 10.8333C7.5 12.214 8.61929 13.3333 10 13.3333Z" stroke="#0052CC" stroke-width="1.2"/>
<path d="M8.14866 17.5H11.852C14.4528 17.5 15.7537 17.5 16.6878 16.8875C17.091 16.6234 17.4382 16.2825 17.7095 15.8841C18.3337 14.9675 18.3337 13.69 18.3337 11.1366C18.3337 8.58331 18.3337 7.30581 17.7095 6.38914C17.4382 5.99081 17.091 5.64986 16.6878 5.38581C16.0878 4.99164 15.3362 4.85081 14.1853 4.80081C13.6362 4.80081 13.1637 4.39248 13.0562 3.86331C12.974 3.4757 12.7605 3.12834 12.4519 2.87994C12.1432 2.63153 11.7582 2.49732 11.362 2.49998H8.63866C7.81533 2.49998 7.10616 3.07081 6.94449 3.86331C6.83699 4.39248 6.36449 4.80081 5.81533 4.80081C4.66533 4.85081 3.91366 4.99248 3.31283 5.38581C2.90994 5.64995 2.56305 5.99089 2.29199 6.38914C1.66699 7.30581 1.66699 8.58248 1.66699 11.1366C1.66699 13.6908 1.66699 14.9666 2.29116 15.8841C2.56116 16.2808 2.90783 16.6216 3.31283 16.8875C4.24699 17.5 5.54783 17.5 8.14866 17.5Z" stroke="#0052CC" stroke-width="1.2"/>
<path d="M15.8333 8.33331H15" stroke="#0052CC" stroke-width="1.2" stroke-linecap="round"/>
</svg>
