<svg width="18" height="18" viewBox="0 0 18 18" fill="none" xmlns="http://www.w3.org/2000/svg">
<g filter="url(#filter0_d_9583_617)">
<path d="M6.6365 3.77148C7.11717 2.36484 9.06074 2.32224 9.63063 3.64367L9.67885 3.77228L10.3275 5.66923C10.4762 6.10427 10.7164 6.50237 11.032 6.83668C11.3476 7.17099 11.7312 7.43373 12.1569 7.60718L12.3314 7.67228L14.2283 8.32014C15.635 8.80081 15.6776 10.7444 14.3569 11.3143L14.2283 11.3625L12.3314 12.0112C11.8962 12.1597 11.4979 12.3999 11.1635 12.7155C10.829 13.0311 10.5662 13.4147 10.3926 13.8406L10.3275 14.0142L9.67966 15.912C9.19899 17.3186 7.25542 17.3612 6.68633 16.0406L6.6365 15.912L5.98864 14.015C5.84008 13.5798 5.5999 13.1816 5.28431 12.8471C4.96872 12.5127 4.58505 12.2498 4.15921 12.0763L3.98559 12.0112L2.08864 11.3633C0.681198 10.8826 0.638597 8.93906 1.96003 8.36998L2.08864 8.32014L3.98559 7.67228C4.42063 7.52363 4.81873 7.2834 5.15304 6.96782C5.48735 6.65223 5.75008 6.26861 5.92353 5.84285L5.98864 5.66923L6.6365 3.77148ZM14.5884 1C14.7388 1 14.8862 1.04218 15.0137 1.12175C15.1413 1.20132 15.2441 1.31509 15.3102 1.45012L15.3488 1.54417L15.6301 2.36886L16.4556 2.65019C16.6063 2.70138 16.7384 2.79617 16.8352 2.92252C16.932 3.04888 16.9891 3.20112 16.9992 3.35995C17.0094 3.51878 16.9722 3.67706 16.8923 3.81471C16.8124 3.95237 16.6934 4.06321 16.5505 4.13318L16.4556 4.17177L15.6309 4.45309L15.3496 5.27859C15.2983 5.42924 15.2035 5.56128 15.0771 5.65797C14.9507 5.75466 14.7984 5.81166 14.6396 5.82173C14.4807 5.8318 14.3225 5.7945 14.1849 5.71455C14.0473 5.6346 13.9365 5.5156 13.8666 5.37263L13.828 5.27859L13.5467 4.4539L12.7212 4.17257C12.5705 4.12137 12.4384 4.02659 12.3416 3.90023C12.2449 3.77388 12.1878 3.62164 12.1776 3.4628C12.1675 3.30397 12.2047 3.1457 12.2846 3.00805C12.3645 2.87039 12.4834 2.75955 12.6264 2.68957L12.7212 2.65099L13.5459 2.36966L13.8272 1.54417C13.8814 1.38536 13.984 1.24749 14.1205 1.14991C14.257 1.05232 14.4206 0.999899 14.5884 1Z" fill="url(#paint0_linear_9583_617)"/>
</g>
<defs>
<filter id="filter0_d_9583_617" x="0" y="0" width="18.001" height="18" filterUnits="userSpaceOnUse" color-interpolation-filters="sRGB">
<feFlood flood-opacity="0" result="BackgroundImageFix"/>
<feColorMatrix in="SourceAlpha" type="matrix" values="0 0 0 0 0 0 0 0 0 0 0 0 0 0 0 0 0 0 127 0" result="hardAlpha"/>
<feOffset/>
<feGaussianBlur stdDeviation="0.5"/>
<feComposite in2="hardAlpha" operator="out"/>
<feColorMatrix type="matrix" values="0 0 0 0 0 0 0 0 0 0 0 0 0 0 0 0 0 0 0.25 0"/>
<feBlend mode="normal" in2="BackgroundImageFix" result="effect1_dropShadow_9583_617"/>
<feBlend mode="normal" in="SourceGraphic" in2="effect1_dropShadow_9583_617" result="shape"/>
</filter>
<linearGradient id="paint0_linear_9583_617" x1="1" y1="1" x2="17" y2="17.0009" gradientUnits="userSpaceOnUse">
<stop stop-color="#50D88F"/>
<stop offset="0.5" stop-color="#51B9C6"/>
<stop offset="1" stop-color="#5398FF"/>
</linearGradient>
</defs>
</svg>
