<svg width="10" height="18" viewBox="0 0 10 18" fill="none" xmlns="http://www.w3.org/2000/svg">
<path d="M2.55306 9.00003L9.60175 16.047C9.76132 16.2066 9.85098 16.423 9.85098 16.6487C9.85098 16.8744 9.76132 17.0908 9.60175 17.2504C9.44217 17.41 9.22573 17.4996 9.00005 17.4996C8.77437 17.4996 8.55793 17.41 8.39835 17.2504L0.749676 9.60173C0.670532 9.52278 0.607741 9.429 0.564897 9.32575C0.522053 9.2225 0.5 9.11181 0.5 9.00003C0.5 8.88824 0.522053 8.77756 0.564897 8.67431C0.607741 8.57106 0.670532 8.47728 0.749676 8.39833L8.39835 0.749658C8.55793 0.590078 8.77437 0.500427 9.00005 0.500427C9.22573 0.500427 9.44217 0.590078 9.60175 0.749658C9.76132 0.909237 9.85098 1.12567 9.85098 1.35135C9.85098 1.57703 9.76132 1.79347 9.60175 1.95305L2.55306 9.00003Z" fill="#181A1B"/>
</svg>
