<svg width="12" height="12" viewBox="0 0 12 12" fill="none" xmlns="http://www.w3.org/2000/svg">
<path d="M6.00002 4.36872L10.698 9.06785C10.8044 9.17423 10.9487 9.234 11.0991 9.234C11.2496 9.234 11.3939 9.17423 11.5003 9.06785C11.6067 8.96146 11.6664 8.81717 11.6664 8.66671C11.6664 8.51626 11.6067 8.37197 11.5003 8.26558L6.40115 3.16647C6.34852 3.1137 6.286 3.07184 6.21717 3.04328C6.14833 3.01472 6.07454 3.00002 6.00002 3.00002C5.9255 3.00002 5.85171 3.01472 5.78287 3.04328C5.71404 3.07184 5.65152 3.1137 5.59889 3.16647L0.499772 8.26558C0.393385 8.37197 0.333618 8.51626 0.333618 8.66671C0.333618 8.81717 0.393385 8.96146 0.499772 9.06785C0.606158 9.17423 0.750449 9.234 0.900902 9.234C1.05136 9.234 1.19565 9.17423 1.30203 9.06785L6.00002 4.36872Z" fill="#181A1B"/>
</svg>
