<svg width="10" height="10" viewBox="0 0 10 10" fill="none" xmlns="http://www.w3.org/2000/svg">
<path d="M4.99983 6.35939L8.91482 2.44346C9.00348 2.3548 9.12372 2.305 9.2491 2.305C9.37448 2.305 9.49472 2.3548 9.58337 2.44346C9.67203 2.53211 9.72183 2.65236 9.72183 2.77774C9.72183 2.90311 9.67203 3.02336 9.58337 3.11201L5.33411 7.36128C5.29025 7.40524 5.23815 7.44013 5.18079 7.46393C5.12343 7.48773 5.06194 7.49998 4.99983 7.49998C4.93773 7.49998 4.87624 7.48773 4.81888 7.46393C4.76152 7.44013 4.70942 7.40524 4.66556 7.36128L0.416293 3.11201C0.327638 3.02336 0.277832 2.90311 0.277832 2.77774C0.277832 2.65236 0.327638 2.53211 0.416293 2.44346C0.504949 2.3548 0.625191 2.305 0.750569 2.305C0.875947 2.305 0.996189 2.3548 1.08484 2.44346L4.99983 6.35939Z" fill="#181A1B"/>
</svg>
