<svg width="20" height="20" viewBox="0 0 20 20" fill="none" xmlns="http://www.w3.org/2000/svg">
<path d="M1.74531 9.23873C1.73532 9.12367 1.74936 9.00779 1.78653 8.89844C1.8237 8.78909 1.88319 8.68866 1.96124 8.60353C2.03928 8.51839 2.13417 8.45041 2.23988 8.40389C2.34559 8.35738 2.45982 8.33334 2.57531 8.33331H4.16656C4.38757 8.33331 4.59954 8.42111 4.75582 8.57739C4.9121 8.73367 4.99989 8.94563 4.99989 9.16664V17.0833C4.99989 17.3043 4.9121 17.5163 4.75582 17.6726C4.59954 17.8288 4.38757 17.9166 4.16656 17.9166H3.26406C3.05549 17.9167 2.85448 17.8385 2.70074 17.6976C2.54699 17.5567 2.45169 17.3632 2.43364 17.1554L1.74531 9.23873ZM7.49989 8.90623C7.49989 8.55789 7.71656 8.24623 8.03114 8.09789C8.71823 7.77373 9.88864 7.12248 10.4166 6.24206C11.097 5.10706 11.2253 3.05664 11.2461 2.58706C11.2491 2.52123 11.2474 2.45539 11.2561 2.39039C11.3691 1.57664 12.9395 2.52706 13.5416 3.53206C13.8686 4.07706 13.9103 4.79331 13.8761 5.35289C13.8391 5.95123 13.6636 6.52914 13.4916 7.10331L13.1249 8.32706H17.6486C17.7774 8.32705 17.9044 8.35688 18.0197 8.4142C18.135 8.47152 18.2354 8.55477 18.3131 8.65743C18.3908 8.76009 18.4437 8.87936 18.4676 9.00588C18.4915 9.1324 18.4857 9.26273 18.4507 9.38664L16.2132 17.31C16.1638 17.4847 16.0587 17.6386 15.9138 17.7481C15.769 17.8576 15.5923 17.9168 15.4107 17.9166H8.33323C8.11221 17.9166 7.90025 17.8288 7.74397 17.6726C7.58769 17.5163 7.49989 17.3043 7.49989 17.0833V8.90623Z" fill="#50D88F" stroke="#50D88F" stroke-width="2" stroke-linecap="round" stroke-linejoin="round"/>
</svg>
