<svg width="18" height="18" viewBox="0 0 18 18" fill="none" xmlns="http://www.w3.org/2000/svg">
<g clip-path="url(#clip0_6877_4191)">
<path d="M13.1472 10.9548C13.1472 11.7108 13.3623 12.0123 13.9248 12.0123C15.1785 12.0123 15.9768 10.4148 15.9768 7.75797C15.9768 3.69717 13.0176 1.75317 9.32305 1.75317C5.52235 1.75317 2.06545 4.30197 2.06545 9.11877C2.06545 13.7196 5.08945 16.2252 9.73345 16.2252C11.3103 16.2252 12.3687 16.0524 13.9878 15.5124L14.3352 16.9587C12.7368 17.478 11.0286 17.6283 9.71185 17.6283C3.62065 17.6283 0.358154 14.2803 0.358154 9.11787C0.358154 3.91227 4.13905 0.369873 9.34466 0.369873C14.7663 0.369873 17.6382 3.60987 17.6382 7.58427C17.6382 10.9539 16.5807 13.5243 13.2543 13.5243C11.7414 13.5243 10.7487 12.9195 10.6191 11.5794C10.2303 13.0698 9.19345 13.5243 7.78855 13.5243C5.90935 13.5243 4.33255 12.0762 4.33255 9.16107C4.33255 6.22347 5.71585 4.40907 8.19985 4.40907C9.51745 4.40907 10.3383 4.92747 10.7037 5.74827L11.331 4.60347H13.1454V10.9548H13.1472ZM10.4913 8.10357C10.4913 6.91647 9.60475 6.41877 8.87035 6.41877C8.07115 6.41877 7.18645 7.06587 7.18645 8.96757C7.18645 10.4796 7.85605 11.322 8.87035 11.322C9.58315 11.322 10.4913 10.8684 10.4913 9.61557V8.10357Z" fill="#363A3D"/>
</g>
<defs>
<clipPath id="clip0_6877_4191">
<rect width="18" height="18" fill="white"/>
</clipPath>
</defs>
</svg>
