<svg width="20" height="22" viewBox="0 0 20 22" fill="none" xmlns="http://www.w3.org/2000/svg">
<path d="M6.30433 12.4365L13.6876 16.7183M13.6876 16.7183C13.8729 16.391 14.1207 16.1038 14.4169 15.8732C14.7131 15.6425 15.0518 15.473 15.4135 15.3743C15.7752 15.2757 16.1528 15.2499 16.5244 15.2984C16.8961 15.347 17.2545 15.4688 17.5791 15.6571C17.9037 15.8453 18.188 16.0962 18.4157 16.3952C18.6433 16.6943 18.8098 17.0356 18.9056 17.3995C19.0014 17.7635 19.0246 18.1429 18.9738 18.5159C18.9231 18.8889 18.7994 19.2481 18.6098 19.5728C18.2303 20.2231 17.6101 20.6962 16.8845 20.8889C16.159 21.0816 15.3871 20.9782 14.7371 20.6013C14.0872 20.2243 13.6121 19.6045 13.4155 18.8771C13.2189 18.1496 13.3167 17.3736 13.6876 16.7183ZM6.30433 9.58003L13.6876 5.29821M6.30433 9.58003C6.49093 9.90472 6.61203 10.2622 6.66073 10.6339C6.70942 11.0056 6.68475 11.3833 6.58812 11.7454C6.49149 12.1076 6.32479 12.447 6.09755 12.7445C5.87031 13.0419 5.58697 13.2914 5.26371 13.4789C4.61086 13.8574 3.83505 13.9599 3.10693 13.7639C2.37882 13.5679 1.75805 13.0894 1.38119 12.4336C1.00432 11.7779 0.902242 10.9986 1.0974 10.2673C1.29255 9.5359 1.76895 8.91237 2.4218 8.53384C3.07465 8.1553 3.85047 8.05277 4.57858 8.24879C5.3067 8.44481 5.92746 8.92428 6.30433 9.58003ZM13.6876 5.29821C13.4981 4.97345 13.3743 4.61423 13.3236 4.24125C13.2728 3.86826 13.296 3.48887 13.3918 3.12492C13.4876 2.76097 13.6541 2.41964 13.8818 2.12059C14.1094 1.82155 14.3937 1.57069 14.7183 1.38245C15.0429 1.19422 15.4013 1.07234 15.773 1.02381C16.1446 0.975289 16.5222 1.00109 16.8839 1.09972C17.2456 1.19836 17.5843 1.36788 17.8805 1.59853C18.1767 1.82918 18.4246 2.11641 18.6098 2.44367C18.9807 3.09895 19.0785 3.875 18.8819 4.60246C18.6853 5.32992 18.2102 5.94973 17.5603 6.32663C16.9104 6.70354 16.1384 6.80694 15.4129 6.61426C14.6874 6.42159 14.0672 5.9485 13.6876 5.29821ZM6.30433 12.4355C6.11772 12.7602 5.86928 13.0448 5.57317 13.2731C5.27707 13.5013 4.93911 13.6688 4.57858 13.7658C4.21805 13.8629 3.84203 13.8877 3.47197 13.8387C3.1019 13.7898 2.74506 13.6682 2.4218 13.4808C2.09854 13.2933 1.8152 13.0438 1.58796 12.7464C1.36072 12.4489 1.19402 12.1095 1.09739 11.7473C1.00077 11.3852 0.976092 11.0075 1.02479 10.6358C1.07348 10.2641 1.19458 9.90567 1.38119 9.58098C1.75805 8.92523 2.37882 8.44671 3.10693 8.25069C3.83505 8.05467 4.61086 8.1572 5.26371 8.53574C5.91656 8.91428 6.39296 9.5378 6.58812 10.2692C6.78327 11.0005 6.68119 11.7798 6.30433 12.4355Z" stroke="black" stroke-width="2" stroke-linecap="square"/>
</svg>
