<svg width="20" height="20" viewBox="0 0 20 20" fill="none" xmlns="http://www.w3.org/2000/svg">
<path d="M1.74531 10.7613C1.73532 10.8763 1.74936 10.9922 1.78653 11.1016C1.8237 11.2109 1.88319 11.3113 1.96124 11.3965C2.03928 11.4816 2.13417 11.5496 2.23988 11.5961C2.34559 11.6426 2.45982 11.6667 2.57531 11.6667H4.16656C4.38757 11.6667 4.59954 11.5789 4.75582 11.4226C4.9121 11.2663 4.99989 11.0544 4.99989 10.8334V2.91669C4.99989 2.69568 4.9121 2.48371 4.75582 2.32743C4.59954 2.17115 4.38757 2.08336 4.16656 2.08336H3.26406C3.05549 2.0833 2.85448 2.16147 2.70074 2.30241C2.54699 2.44335 2.45169 2.63682 2.43364 2.84461L1.74531 10.7613ZM7.49989 11.0938C7.49989 11.4421 7.71656 11.7538 8.03114 11.9021C8.71823 12.2263 9.88864 12.8775 10.4166 13.7579C11.097 14.8929 11.2253 16.9434 11.2461 17.4129C11.2491 17.4788 11.2474 17.5446 11.2561 17.6096C11.3691 18.4234 12.9395 17.4729 13.5416 16.4679C13.8686 15.9229 13.9103 15.2067 13.8761 14.6471C13.8391 14.0488 13.6636 13.4709 13.4916 12.8967L13.1249 11.6729H17.6486C17.7774 11.6729 17.9044 11.6431 18.0197 11.5858C18.135 11.5285 18.2354 11.4452 18.3131 11.3426C18.3908 11.2399 18.4437 11.1206 18.4676 10.9941C18.4915 10.8676 18.4857 10.7373 18.4507 10.6134L16.2132 2.69002C16.1638 2.51528 16.0587 2.36144 15.9138 2.25193C15.769 2.14242 15.5923 2.08323 15.4107 2.08336H8.33323C8.11221 2.08336 7.90025 2.17115 7.74397 2.32743C7.58769 2.48371 7.49989 2.69568 7.49989 2.91669V11.0938Z" fill="#FF3A4A" stroke="#FF3A4A" stroke-width="2" stroke-linecap="round" stroke-linejoin="round"/>
</svg>
