<svg width="16" height="16" viewBox="0 0 16 16" fill="none" xmlns="http://www.w3.org/2000/svg">
<path d="M8 14.9999C11.8656 14.9999 15 11.8656 15 7.99994C15 4.13431 11.8656 0.999939 8 0.999939C4.13437 0.999939 0.999998 4.13431 0.999998 7.99994C0.999998 11.8656 4.13437 14.9999 8 14.9999ZM8 2.18744C11.2094 2.18744 13.8125 4.79056 13.8125 7.99994C13.8125 11.2093 11.2094 13.8124 8 13.8124C4.79062 13.8124 2.1875 11.2093 2.1875 7.99994C2.1875 4.79056 4.79062 2.18744 8 2.18744Z" fill="#BABABA"/>
<path d="M8.75 5.24994C8.75 5.05103 8.67098 4.86026 8.53033 4.71961C8.38968 4.57896 8.19891 4.49994 8 4.49994C7.80109 4.49994 7.61032 4.57896 7.46967 4.71961C7.32902 4.86026 7.25 5.05103 7.25 5.24994C7.25 5.44885 7.32902 5.63962 7.46967 5.78027C7.61032 5.92092 7.80109 5.99994 8 5.99994C8.19891 5.99994 8.38968 5.92092 8.53033 5.78027C8.67098 5.63962 8.75 5.44885 8.75 5.24994ZM8.375 6.99994H7.625C7.55625 6.99994 7.5 7.05619 7.5 7.12494V11.3749C7.5 11.4437 7.55625 11.4999 7.625 11.4999H8.375C8.44375 11.4999 8.5 11.4437 8.5 11.3749V7.12494C8.5 7.05619 8.44375 6.99994 8.375 6.99994Z" fill="#BABABA"/>
</svg>
