<svg width="12" height="12" viewBox="0 0 12 12" fill="none" xmlns="http://www.w3.org/2000/svg">
<path fill-rule="evenodd" clip-rule="evenodd" d="M0.912549 5.99999C0.912549 3.44174 2.9291 0.902258 6.06843 0.902258C8.60378 0.902258 9.85689 2.75767 10.3909 3.74438H8.80609C8.55414 3.74438 8.34982 3.94635 8.34982 4.1955C8.34982 4.44465 8.55414 4.64663 8.80609 4.64663H11.5437C11.7957 4.64663 12 4.44465 12 4.1955V1.48874C12 1.23959 11.7957 1.03761 11.5437 1.03761C11.2918 1.03761 11.0875 1.23959 11.0875 1.48874V3.12469C10.4446 2.00416 8.95748 0 6.06843 0C2.36092 0 0 3.00937 0 5.99999C0 8.99062 2.36092 12 6.06843 12C7.84228 12 9.31912 11.306 10.3706 10.2482C10.9337 9.68175 11.3734 9.01264 11.6731 8.29237C11.769 8.06199 11.6579 7.79834 11.4249 7.70352C11.1918 7.60869 10.9252 7.71861 10.8293 7.94901C10.5731 8.56467 10.1978 9.13489 9.71982 9.6157C8.83301 10.5079 7.58788 11.0977 6.06843 11.0977C2.9291 11.0977 0.912549 8.55826 0.912549 5.99999Z" fill="#C9CCCF"/>
</svg>
