<svg width="16" height="15" viewBox="0 0 16 15" fill="none" xmlns="http://www.w3.org/2000/svg">
<path d="M7.73098 0.545095C7.84102 0.322121 8.15898 0.322122 8.26902 0.545096L10.2813 4.6225C10.325 4.71104 10.4095 4.77241 10.5072 4.78661L15.0069 5.44045C15.253 5.47621 15.3512 5.7786 15.1732 5.95216L11.9172 9.12598C11.8465 9.1949 11.8142 9.2942 11.8309 9.39152L12.5995 13.873C12.6416 14.1181 12.3843 14.305 12.1642 14.1893L8.1396 12.0734C8.05221 12.0274 7.94779 12.0274 7.8604 12.0734L3.83576 14.1893C3.61567 14.305 3.35844 14.1181 3.40047 13.873L4.16911 9.39152C4.1858 9.2942 4.15354 9.1949 4.08283 9.12598L0.826832 5.95216C0.648777 5.7786 0.74703 5.47621 0.993097 5.44045L5.49278 4.78661C5.59049 4.77241 5.67496 4.71104 5.71866 4.6225L7.73098 0.545095Z" fill="#F6C72B"/>
</svg>
