<svg width="20" height="20" viewBox="0 0 20 20" fill="none" xmlns="http://www.w3.org/2000/svg">
<g clip-path="url(#clip0_11629_34)">
<path d="M14.8615 0.972656H5.13932C2.83814 0.972656 0.972656 2.83814 0.972656 5.13932V14.8615C0.972656 17.1627 2.83814 19.0282 5.13932 19.0282H14.8615C17.1627 19.0282 19.0282 17.1627 19.0282 14.8615V5.13932C19.0282 2.83814 17.1627 0.972656 14.8615 0.972656Z" stroke="currentColor" stroke-width="1.8" stroke-linejoin="round"/>
<path d="M15.0684 6.08612C14.1359 5.18186 12.4484 4 10 4C7.55156 4 5.86412 5.18186 4.93156 6.08612C4.67822 6.33179 4.52444 6.67262 4.50267 7.0367C4.4809 7.40077 4.59285 7.75961 4.8149 8.03749L6.08525 9.62887C6.23968 9.82146 6.45387 9.9487 6.68892 9.9875C6.92398 10.0263 7.16431 9.97408 7.36627 9.84032C7.97324 9.44136 8.926 8.96204 10.0008 8.96204C11.0755 8.96204 12.0283 9.44136 12.6353 9.84032C12.8372 9.97408 13.0776 10.0263 13.3126 9.9875C13.5477 9.9487 13.7618 9.82146 13.9163 9.62887L15.1851 8.03749C15.4071 7.75961 15.5191 7.40077 15.4973 7.0367C15.4756 6.67262 15.3218 6.33179 15.0684 6.08612Z" stroke="currentColor" stroke-width="1.8" stroke-linejoin="round"/>
</g>
<defs>
<clipPath id="clip0_11629_34">
<rect width="20" height="20" fill="white"/>
</clipPath>
</defs>
</svg>
